<svg xmlns="http://www.w3.org/2000/svg" id="svg75" width="500" height="707" fill-rule="evenodd" clip-rule="evenodd" image-rendering="optimizeQuality" shape-rendering="geometricPrecision" text-rendering="geometricPrecision" viewBox="0 0 2480 3507.4">
  <defs id="defs13">
    <filter id="electronGlow" width="1.3" height="1.3" x="-.2" y="-.2">
      <feGaussianBlur id="feGaussianBlur1" in="SourceGraphic" result="blur" stdDeviation="4"/>
      <feColorMatrix id="feColorMatrix1" in="blur" result="colorBlur" type="matrix" values="1 0 0 0 0.2 0 1 0 0 0.8 0 0 1 0 0 0 0 0 1 0"/>
      <feMerge id="feMerge3">
        <feMergeNode id="feMergeNode1" in="colorBlur"/>
        <feMergeNode id="feMergeNode2" in="colorBlur"/>
        <feMergeNode id="feMergeNode3" in="SourceGraphic"/>
      </feMerge>
    </filter>
    <filter id="flashGlow" width="1.2" height="1.2" x="-.1" y="-.1">
      <feGaussianBlur id="feGaussianBlur3" in="SourceGraphic" result="blur" stdDeviation="12"/>
      <feMerge id="feMerge7">
        <feMergeNode id="feMergeNode4" in="blur"/>
        <feMergeNode id="feMergeNode5" in="blur"/>
        <feMergeNode id="feMergeNode6" in="blur"/>
        <feMergeNode id="feMergeNode7" in="SourceGraphic"/>
      </feMerge>
    </filter>
    <filter id="mcuRedGlow" width="1.2" height="1.2" x="-.1" y="-.1">
      <feGaussianBlur id="feGaussianBlur7" in="SourceGraphic" result="blur" stdDeviation="12"/>
      <feColorMatrix id="feColorMatrix7" in="blur" result="colorBlur" type="matrix" values="1 0 0 0 0 0 0 0 0 0 0 0 0 0 0 0 0 0 1 0"/>
      <feMerge id="feMerge10">
        <feMergeNode id="feMergeNode8" in="colorBlur"/>
        <feMergeNode id="feMergeNode9" in="colorBlur"/>
        <feMergeNode id="feMergeNode10" in="SourceGraphic"/>
      </feMerge>
    </filter>
    <filter id="mcuGlow" width="1.1" height="1.1" x="-.1" y="-.1">
      <feGaussianBlur id="feGaussianBlur10" in="SourceGraphic" result="blur" stdDeviation="8"/>
      <feColorMatrix id="feColorMatrix10" in="blur" result="colorBlur" type="matrix" values="0 0 0 0 0 0 1 0 0 0.8 0 0 1 0 0 0 0 0 1 0"/>
      <feMerge id="feMerge13">
        <feMergeNode id="feMergeNode11" in="colorBlur"/>
        <feMergeNode id="feMergeNode12" in="colorBlur"/>
        <feMergeNode id="feMergeNode13" in="SourceGraphic"/>
      </feMerge>
    </filter>
    <path id="circuitPath" fill="none" stroke="none" d="M1194 1254v-200l-18-13-5-18 5-19 18-13v-56h-64v38l16 10 8 22-8 21-16 10 1 48 42 43v127h-18l-1-119-42-43v-56l-16-10-8-18 6-22 18-13-1-38h-57V799L918 667l-388-1-135 138v392l117 121h163v53h37l14-18 22-6 17 8 11 16h55l44 43h119v18H867l-43-42h-48l-13 18-19 5-21-7-11-17h-37v67h56l13-18 22-6 17 8 11 16h200v18H794l-13 18-19 6-18-6-14-18h-55v64h37l11-16 21-7 21 7 11 16h48l43-42 126-1v19H876l-44 43h-55l-11 16-18 8-21-6-14-18h-37v58H538l-132 136v388l137 135h393l120-117v-163h53v-38l-18-13-5-22 7-17 16-11 1-56 42-43v-119h19v127l-43 43v48l18 13 6 19-8 21-16 10v38h66v-56l-18-13-5-22 7-18 16-10v-200h19v200l18 13 6 19-6 18-18 13v56h64v-38l-16-10-8-21 8-21 16-11v-48l-43-43v-127h19v119l43 43v56l16 11 7 17-5 22-18 13v38h57v136l137 132 387 1 136-138-1-392-116-121h-164v-53h-37l-13 18-22 6-18-8-11-16h-55l-43-42-119-1v-18h126l44 42 48 1 13-18 18-6 21 7 11 17h37v-67h-55l-13 18-22 6-18-7-11-17h-199v-18h199l14-18 18-6 19 6 13 18h55v-64h-37l-11 16-21 7-21-7-10-16h-48l-44 43h-126v-19h119l43-43h55l11-16 18-7 22 5 13 18h37v-58h137l132-136V790l-137-135h-392l-121 117v163h-53v38l18 13 6 22-8 18-16 10v56l-43 43v119h-19l1-127 42-43v-48l-18-13-5-18 7-21 16-11v-38h-66v56l18 13 6 22-8 18-16 10v200z"/>
    <path id="innerRingPath" fill="none" stroke="none" d="m486 1317-110-113V796l146-148h403l129 125V641h297v105l113-109 408-1 148 147-1 403-124 128h132v297h-105l109 113 1 408-147 148h-403l-129-125v132h-297v-105l-113 109-407 1-149-147 1-403 124-128H380v-297z"/>
  </defs>
  <style id="style13">
    @import url(https://fonts.googleapis.com/css2?family=Ubuntu+Sans:wght@500&amp;display=swap);
  </style>
  <g id="PCB">
    <path id="kontur" fill="#b6ddc7" d="M261 398h1877c70 0 128 57 128 128v1876c0 71-58 129-128 129H261c-70 0-128-58-128-129V526c0-71 58-128 128-128" style="cursor:pointer;fill:#121212;fill-opacity:1"/>
    <path id="path13" fill="#1f1a17" d="M261 398h1877c70 0 128 57 128 128v1876c0 71-58 129-128 129H261c-70 0-128-58-128-129V526c0-71 58-128 128-128m4 14h1869c64 0 118 53 118 118v1868c0 65-54 118-118 118H265c-65 0-118-53-118-118V530c0-65 53-118 118-118" style="fill:#121212;fill-opacity:1"/>
    <path id="holes" fill="#1f1a17" d="M2084 2484a133 133 0 1 1 0-266 133 133 0 0 1 0 266m0-16a117 117 0 1 1 0-234 117 117 0 0 1 0 234m0-41a76 76 0 1 1 0-152 76 76 0 0 1 0 152m0-15a61 61 0 1 1 0-122 61 61 0 0 1 0 122m-1904-64a133 133 0 1 1 266 0 133 133 0 0 1-266 0m16 0a117 117 0 1 1 234 0 117 117 0 0 1-234 0m40 0a76 76 0 1 1 153 0 76 76 0 0 1-153 0m16 0a61 61 0 1 1 121 0 61 61 0 0 1-121 0m63-1904a133 133 0 1 1 0 266 133 133 0 0 1 0-266m0 16a117 117 0 1 1 0 234 117 117 0 0 1 0-234m0 41a76 76 0 1 1 0 153 76 76 0 0 1 0-153m0 16a61 61 0 1 1 0 121 61 61 0 0 1 0-121m1904 63a133 133 0 1 1-266 0 133 133 0 0 1 266 0m-16 0a117 117 0 1 1-234 0 117 117 0 0 1 234 0m-40 0a76 76 0 1 1-153 0 76 76 0 0 1 153 0m-16 0a61 61 0 1 1-121 0 61 61 0 0 1 121 0" style="fill:#ceaa52;fill-opacity:1"/>
  </g>
  <g id="MCU" style="fill:#ceaa52;fill-opacity:1">
    <path id="Corners" fill="#1f1a17" d="M1072 1334h41v6h-34v34h-7zm7 219v34h34v6h-41v-40zm212-219h41v40h-6v-34h-35zm41 219v40h-41v-6h35v-34zm-194-302v37q-1 9-14 10-12-1-13-10v-37zm40 0v37q-2 9-14 10-12-1-14-10v-37zm81 0v37q-1 9-13 10-13-1-14-10v-37zm-42 0v37q-1 9-13 10-13-1-14-10v-37zm79 0v37q-1 8-14 9-12-1-13-9v-37zm77 0h44v44h-44zm-381 278h37q8 2 9 14-1 12-9 14h-37zm0-39h37q8 1 9 13-1 13-9 14h-37zm0-81h37q8 1 9 13-1 13-9 14h-37zm0 41h37q8 1 9 14-1 12-9 13h-37zm0-78h37q8 1 9 14-1 12-9 13h-37zm0-35h37q8 1 9 14-1 12-9 13h-37zm0-34h37q8 1 9 14-1 12-9 13h-37zm0-8v-44h44v44zm274 381v-37q1-8 14-9 12 1 13 9v37zm-36 0v-37q1-8 13-9 13 1 14 9v37zm-82 1v-37q1-9 14-10 12 1 13 10v37zm42-1v-37q1-8 13-9 13 1 14 9v37zm112 0v-37q1-8 13-9 13 1 14 9v37zm35 0v-37q1-8 13-9 13 1 14 9v37zm-225 0v-37q1-8 13-9 13 1 14 9v37zm-33 0v-37q1-8 13-9 13 1 14 9v37zm-35 0v-37q1-8 13-9 13 1 14 9v37zm-9 0h-43v-44h43zm381-276h-37q-9-1-10-14 1-12 10-13h37zm-1 38h-37q-8-1-9-13 1-13 9-14h37zm0 82h-37q-8-1-9-14 1-12 9-13h37zm0-42h-37q-8-1-9-14 1-12 9-13h37zm0-112h-37q-8-1-9-13 1-13 9-14h37zm0-35h-37q-8-1-9-14 1-12 9-13h37zm0 225h-37q-8-1-9-14 1-12 9-13h37zm0 35h-37q-8-2-9-14 1-12 9-14h37zm0 34h-37q-8-1-9-14 1-12 9-13h37zm0 7v44h-44v-44zm-254-297v36q-1 9-14 10-12 0-13-10v-36zm39 0v36q-1 10-14 10c-13 0-13-4-13-10v-36zm38 0v36q-1 9-13 10-13 0-14-10v-36zm39 0v36q-1 10-14 10-12 0-13-10v-36zm-204 170h37q8 1 9 14-1 12-9 13h-37zm0-39h37q8 1 9 14-1 12-9 13h-37zm0-38h37q8 1 9 13-1 13-9 14h-37zm0-39h37q8 1 9 14-1 12-9 13h-37zm170 204v-37q1-8 14-9 12 1 13 9v37zm-38 0v-37q1-8 13-9 13 1 14 9v37zm-39 0v-37q1-8 13-9 13 1 14 9v37zm-39 0v-37q1-8 14-9 12 1 13 9v37zm204-170h-36q-10-1-10-14 1-12 10-13h36zm0 38h-36q-9-1-10-13 1-13 10-14h36zm0 39h-36q-10-1-10-13 1-13 10-14h36zm0 39h-36q-9-1-10-14 1-12 10-13h36zm-339 27h37q8 1 9 14-1 12-9 13h-37zm0 32h37q8 2 9 14-1 12-9 13h-37zm112-346v37q-1 8-14 9-12-1-13-9v-37zm-35 0v37q-1 8-14 9-12-1-13-9v-37zm259-1v37q-1 8-13 9-13-1-14-9v-37zm36 0v37q-1 8-14 9-12-1-13-9v-37z" style="fill:#ceaa52;fill-opacity:1"/>
  </g>
  <g id="Circuit">
    <path id="path14" fill="#1f1a17" d="M458 1936v-3l1-2v-1l1-1 1-1v-2l1-1 1-1h1l2-1 1-1h1l1-1h6l2 1h1l1 1 1 1h1l2 1v1l1 2 1 1 1 1v3l1 1v3l-1 1v3l-1 1-1 1-1 2v1l-2 1h-1l-1 1-1 1h-1l-2 1h-6l-1-1h-1l-1-1-2-1h-1l-1-1-1-1v-2l-1-1-1-1v-1l-1-2zm240 272v-3l1-2v-1l1-1 1-1v-2l1-1h1l1-1 2-1 1-1h3l1-1h3l1 1h3l1 1 1 1 2 1h1v1l1 2 1 1 1 1v3l1 1v3l-1 1v3l-1 1-1 2-1 1v1l-1 1h-2l-1 1-1 1h-1l-2 1h-5l-2-1h-1l-1-1-2-1h-1l-1-1-1-1v-1l-1-2-1-1v-1l-1-2v-1zm-97-127v-240h238v240zm-193-496v-240h239v240zm322-206v-4l1-2 1-1v-1l1-1 1-1 1-1 1-1 1-1h2l1-1h8l2 1h1l1 1 1 1 1 1 1 1 1 1 1 1v1l1 2v8l-1 2v1l-1 1-1 1-1 1-1 1-1 1-1 1h-1l-2 1h-8l-1-1h-2l-1-1-1-1-1-1-1-1-1-1v-1l-1-1-1-2v-2zm18 85v-4l1-2 1-1v-1l1-1 1-1 1-1 1-1 1-1h2l1-1h8l2 1h1l1 1 1 1 1 1 1 1 1 1 1 1v1l1 2v8l-1 2v1l-1 1-1 1-1 1-1 1-1 1-1 1h-1l-2 1h-8l-1-1h-2l-1-1-1-1-1-1-1-1-1-1v-1l-1-1-1-2v-3zm-16-746 2 1h2l2 1h1l1 1 1 1 1 1 1 1 1 1 1 1v1l1 1v9l-1 1v2l-1 1-1 1-1 1-1 1-1 1h-1l-1 1h-2l-1 1h-6l-1-1h-1l-2-1h-1l-1-1-1-1-1-1-1-1v-1l-1-2-1-1v-9l1-1 1-1v-1l1-1 1-1 1-1 1-1 1-1h2l1-1h3zM460 958l2 1h2l2 1h1l1 1 1 1 1 1 1 1 1 1 1 1v1l1 2v8l-1 1v2l-1 1-1 1-1 1-1 1-1 1h-1l-1 1h-2l-1 1h-6l-1-1h-2l-1-1h-1l-1-1-1-1-1-1-1-1-1-1v-2l-1-1v-8l1-2v-1l1-1 1-1 1-1 1-1 1-1 1-1h1l2-1h3zm126-97h241v238H586zm496-192h241v238h-241zm207 321h2l2 1h1l1 1 2 1h1l1 1 1 1v1l1 2 1 1v1l1 2v5l-1 2v1l-1 1-1 1v2l-1 1-1 1h-1l-2 1-1 1h-3l-1 1h-3l-1-1h-3l-1-1-1-1h-2l-1-1v-1l-1-2-1-1-1-1v-3l-1-1v-3l1-1v-3l1-1 1-2 1-1v-1l1-1h2l1-1 1-1h1l2-1h1zm-85 18h3l1 1h1l1 1 2 1h1l1 1 1 1 1 2v1l1 1v1l1 2v5l-1 2v1l-1 1v2l-1 1-1 1-1 1h-1l-2 1-1 1h-1l-1 1h-6l-2-1h-1l-1-1-1-1h-1l-1-1-1-1-1-1-1-2-1-1v-3l-1-1v-3l1-1v-3l1-1 1-1 1-2 1-1 1-1h1l1-1 1-1h1l2-1h1zm745-16v5l-1 1-1 1v1l-1 2-1 1-1 1h-1l-1 1-2 1h-1l-1 1h-6l-1-1h-2l-1-1-1-1h-1l-1-1-1-1-1-2-1-1v-1l-1-1v-9l1-1v-1l1-2 1-1 1-1 1-1h1l1-1 1-1h2l1-1h6l1 1h1l2 1 1 1h1l1 1 1 1 1 1v2l1 1 1 1v3zm-240-272v3l-1 2v1l-1 1v1l-1 2-1 1h-1l-1 1-1 1-2 1h-2l-2 1h-3l-1-1h-3l-1-1-1-1-1-1h-1l-1-1-1-2-1-1v-1l-1-1v-9l1-1v-1l1-2 1-1 1-1 1-1h1l1-1 1-1h2l1-1h6l1 1h1l2 1 1 1h1l1 1 1 1 1 1v2l1 1v1l1 2v1zm98 127v240h-239V847zm192 496v240h-239v-240zm-322 206v4l-1 2v1l-1 1-1 1-1 1-1 1-1 1-1 1h-1l-2 1h-8l-1-1h-2l-1-1-1-1-1-1-1-1-1-1v-1l-1-1-1-2v-8l1-2 1-1v-1l1-1 1-1 1-1 1-1 1-1h2l1-1h8l2 1h1l1 1 1 1 1 1 1 1 1 1 1 1v1l1 2v2zm-18-85v4l-1 2v1l-1 1-1 1-1 1-1 1-1 1-1 1h-1l-2 1h-8l-1-1h-2l-1-1-1-1-1-1-1-1-1-1v-1l-1-1-1-2v-8l1-2 1-1v-1l1-1 1-1 1-1 1-1 1-1h2l1-1h8l2 1h1l1 1 1 1 1 1 1 1 1 1 1 1v1l1 2v3zm16 746-1-1h-3l-1-1h-2l-1-1-1-1-1-1-1-1-1-1v-1l-1-1-1-2v-8l1-1 1-2v-1l1-1 1-1 1-1 1-1h1l2-1h1l1-1h6l1 1h2l1 1h1l1 1 1 1 1 1 1 1 1 1v2l1 1v8l-1 2v1l-1 1-1 1-1 1-1 1-1 1-1 1h-1l-2 1h-2zm272-240-1-1h-3l-1-1h-2l-1-1-1-1-1-1-1-1-1-1v-1l-1-1v-2l-1-1v-6l1-1v-1l1-2v-1l1-1 1-1 1-1 1-1h1l2-1h1l1-1h6l1 1h2l1 1h1l1 1 1 1 1 1 1 1 1 1v2l1 1v3l1 1-1 2v2l-1 2v1l-1 1-1 1-1 1-1 1-1 1-1 1h-1l-2 1h-2zm-126 97h-241v-239h241zm-496 192h-241v-238h241zm-206-321h-3l-2-1h-1l-1-1-1-1h-1l-1-1-1-1-1-1-1-2v-1l-1-1v-2l-1-1v-3l1-1v-2l1-1v-1l1-1 1-2 1-1 1-1h1l1-1 1-1h3l1-1h3l2 1h2l2 1 1 1h1l1 1 1 1 1 2v1l1 1v1l1 2v5l-1 2v1l-1 1v2l-1 1-1 1-1 1h-1l-1 1-2 1h-1l-1 1h-2zm85-18h-2l-1-1h-3l-1-1-1-1h-1l-1-1-1-1-1-2-1-1-1-1v-3l-1-1v-3l1-1v-3l1-1 1-2 1-1 1-1 1-1h1l1-1 1-1h1l2-1h6l1 1h1l1 1 2 1h1l1 1 1 1 1 1v2l1 1v1l1 2v5l-1 2v1l-1 1-1 1v2l-1 1-1 1h-1l-2 1-1 1h-2l-2 1zm-718-603-110-113V796l146-148h403l129 125V641h297v105l113-109 408-1 148 147-1 402-124 129h132v297h-105l109 113v408l-146 148h-403l-129-125v132h-297v-105l-113 109-407 1-149-146 1-403 124-129H380v-297zm800 621h-3l-1-1h-1l-2-1-1-1h-1l-1-1-1-1-1-1v-2l-1-1v-1l-1-2v-5l1-2v-1l1-1v-1l1-2 1-1 1-1h1l1-1 2-1h2l2-1h3l1 1h3l1 1 1 1h1l1 1 1 1 1 2 1 1v1l1 1v2l1 1v3l-1 1v2l-1 1v1l-1 2-1 1-1 1-1 1h-1l-1 1-1 1h-1l-2 1h-1zm391-557v5l-1 1v1l-1 1-1 1-1 1-1 1-1 1-1 1-1 1h-3l-1 1h-3l-2-1h-2l-2-1-1-1-1-1-1-1-1-1-1-1v-1l-1-1-1-1v-9l1-1 1-1v-2l1-1 1-1 1-1 1-1h1l2-1h1l1-1h6l1 1h2l1 1h1l1 1 1 1 1 1 1 1 1 2v1l1 1v3zm-556-391h3l1 1h2l1 1 1 1h1l1 1 1 1 1 1 1 2v1l1 1v9l-1 1v1l-1 1-1 2-1 1-1 1h-1l-1 1-1 1h-2l-1 1h-6l-1-1h-2l-1-1-1-1h-1l-1-1-1-1-1-2-1-1v-1l-1-1v-9l1-1v-1l1-2 1-1 1-1 1-1h1l1-1 1-1h2l1-1h2zm73 264v-200l-3-1-3-1-3-2-2-2-3-2-2-2-2-3-1-3-2-3-1-3-1-3v-13l1-3 1-3 2-3 1-3 2-2 2-3 3-2 2-2 3-2 3-1 3-1v-56h-64v38h1l3 1 3 1 2 2 3 2 2 2 2 2 2 3 2 3 1 3 2 3v3l1 3v7l-1 3v3l-2 3-1 3-2 3-2 3-2 2-2 2-3 2-2 2-3 1-3 1h-1l1 48 42 43v127h-18l-1-119-42-43v-56h-1l-3-1-3-1-2-2-3-2-2-2-3-2-1-3-2-3-1-3-2-3v-3l-1-3v-7l1-3v-3l2-3 1-3 2-3 1-3 3-2 2-2 3-2 2-2 3-1 3-1h1l-1-38h-57V799L918 667l-388-1-135 138v392l117 121h163v53h37l1-1 1-3 1-3 2-2 2-3 2-2 2-2 3-2 2-2 3-1 3-2h3l4-1h6l4 1h3l3 2 3 1 3 2 2 2 2 2 3 2 2 3 1 2 2 3 1 3v1h55l44 42 119 1v19l-127-1-43-42-48-1v1l-1 3-2 3-1 3-2 2-3 2-2 3-2 1-3 2-3 2-3 1h-3l-4 1h-6l-4-1h-3l-3-1-3-2-2-2-3-1-2-3-2-2-2-2-2-3-1-3-1-3-1-1h-37v67h55l1-1 1-3 1-3 2-2 2-3 2-2 2-3 3-1 2-2 3-1 3-2h4l3-1h7l3 1h3l3 2 3 1 3 2 2 1 3 3 2 2 2 3 1 2 2 3 1 3v1h200v18H794v1l-1 3-2 3-1 2-2 3-2 2-3 3-2 1-3 2-3 1-3 2h-3l-3 1h-7l-3-1h-4l-3-2-3-1-2-2-3-1-2-3-2-2-2-3-2-2-1-3-1-3-1-1h-55v64h38l1-3 1-3 2-3 2-2 2-3 2-2 3-2 2-1 3-2 3-1 3-1h14l3 1 3 1 3 2 3 1 2 2 2 2 3 3 2 2 1 3 2 3 1 3h48l43-42 127-1v19H875l-44 43h-55l-1 4-2 2-1 3-2 3-3 2-2 2-2 2-3 2-3 1-3 1-3 1-4 1h-6l-4-1-3-1-3-1-3-1-2-2-3-2-2-2-2-2-2-3-2-3-1-2-1-4h-38v58H538l-131 136-1 388 137 135h393l120-117v-163h53v-38l-3-1-3-1-3-2-2-2-3-2-2-2-2-3-1-3-2-3-1-3-1-3v-13l1-3 1-3 2-3 1-3 2-3 2-2 3-2 2-2 3-2 3-1 3-1 1-56 42-43v-119h19v127l-43 43v48h1l3 1 2 1 3 2 3 2 2 2 2 2 2 3 2 3 1 3 1 3 1 3 1 3v7l-1 3-1 3-1 3-1 3-2 3-2 3-2 2-2 2-3 2-3 2-2 1-3 1h-1v38h66v-56l-3-1-3-1-3-2-2-2-3-2-2-2-2-3-1-3-2-3-1-3-1-3v-13l1-3 1-3 2-3 1-3 2-3 2-2 3-2 2-2 3-2 3-1 3-1v-200h19v200l3 1 3 1 3 2 3 2 2 2 2 2 2 3 2 3 1 3 1 3 1 3 1 3v7l-1 3-1 3-1 3-1 3-2 3-2 3-2 2-2 2-3 2-3 2-3 1-3 1v56h64v-38h-1l-3-1-2-1-3-2-3-2-2-2-2-2-2-3-2-3-1-3-1-3-1-3-1-3v-7l1-3 1-3 1-3 1-3 2-3 2-3 2-2 2-2 3-2 3-2 2-1 3-1h1v-48l-43-43v-127h19v119l42 43 1 56 3 1 3 1 3 2 2 2 3 2 2 2 2 3 1 3 2 3 1 3 1 3v13l-1 3-1 3-2 3-1 3-2 3-2 2-3 2-2 2-3 2-3 1-3 1v38h57v136l137 132 387 1 136-138-1-392-116-121h-164v-53h-37v1l-1 3-2 3-1 2-2 3-2 2-3 2-2 2-3 2-3 1-3 2h-3l-3 1h-7l-4-1h-3l-3-2-3-1-2-2-3-2-2-2-2-2-2-3-2-2-1-3-1-3-1-1h-55l-43-42-119-1v-19l126 1 44 42 47 1 1-1 1-3 1-3 2-3 2-2 2-2 2-3 3-1 2-2 3-2 3-1h3l4-1h7l3 1h3l3 1 3 2 3 2 2 1 3 3 2 2 2 2 1 3 2 3 1 3v1h37v-67h-55v1l-1 3-2 3-1 2-2 3-3 2-2 3-2 1-3 2-3 1-3 2h-3l-4 1h-6l-4-1h-3l-3-2-3-1-2-2-3-1-2-3-2-2-2-3-2-2-1-3-1-3-1-1h-199v-18h199l1-1 1-3 1-3 2-2 2-3 2-2 2-2 3-2 2-2 3-1 3-2h3l4-1h6l4 1h3l3 2 3 1 3 2 2 1 2 3 3 2 2 3 1 2 2 3 1 3v1h55v-64h-37l-1 3-2 3-1 3-2 2-2 3-3 2-2 2-3 1-3 2-3 1-3 1h-14l-3-1-3-1-3-2-2-1-3-2-2-2-2-3-2-2-2-3-1-3-1-3h-48l-44 42-126 1v-19h119l43-43h56l1-4 1-2 2-3 2-3 2-2 2-2 3-2 2-2 3-1 3-1 3-1 4-1h7l3 1 3 1 3 1 3 1 3 2 2 2 3 2 2 2 2 3 1 3 2 2 1 4h37v-58h137l132-136V790l-137-135h-392l-121 117v163h-53v38l3 1 3 1 3 2 3 2 2 2 2 2 2 3 2 3 1 3 1 3 1 3v3l1 3-1 4v3l-1 3-1 3-1 3-2 3-2 3-2 2-2 2-3 2-3 2-3 1-3 1v56l-43 43v119h-19v-127l43-43v-48l-3-1-3-1-3-2-2-2-3-2-2-2-2-3-1-3-2-3-1-3-1-3v-13l1-3 1-3 2-3 1-3 2-3 2-2 3-2 2-2 3-2 3-1 3-1v-38h-66v56l3 1 3 1 3 2 3 2 2 2 2 3 2 2 2 3 1 3 1 3 1 3 1 3v7l-1 3-1 3-1 3-1 3-2 3-2 3-2 2-2 2-3 2-3 2-3 1-3 1v200zm-200 141h-41l-177-177H505l-54-55v-158l-1-1-3-1-3-1-2-2-3-2-2-2-2-2-2-3-2-2-1-3-2-3v-4l-1-3v-7l1-3v-3l2-3 1-3 2-3 2-2 2-3 2-2 3-2 2-1 3-2 3-1h1V823l100-100h150l1-3 1-3 2-3 2-2 2-3 2-2 3-2 2-1 3-2 3-1 3-1h14l3 1 3 1 3 2 3 1 2 2 3 2 2 3 2 2 1 3 2 3 1 3h121l57 58v271h-18V789l-47-47H764v1l-1 3-2 3-1 2-2 3-2 2-3 2-2 2-3 2-3 1-3 1-3 1-4 1h-6l-4-1-3-1-3-1-3-1-2-2-3-2-2-2-2-2-2-3-2-2-1-3-1-3-1-1H558l-89 89v110h1l3 1 3 2 3 1 2 2 2 2 3 3 1 2 2 3 2 3 1 3v3l1 3v7l-1 3v4l-1 3-2 3-2 2-1 3-3 2-2 2-2 2-3 2-3 1-3 1-1 1v150l44 44h271l177 177h33zm0-116-152-151H558V833h297v281l140 140h-1zm121-25v-87l-148-149V787h19v224l148 148v95zm20 420v40l-177 178v270l-55 55H744l-1 3-1 3-2 3-2 3-2 2-3 2-2 2-3 2-3 1-3 1-3 1h-3l-4 1-3-1h-3l-3-1-3-1-3-1-3-2-3-2-2-2-2-2-2-3-2-3-1-3-1-3H563l-100-100v-150l-3-1-3-1-3-2-3-2-2-2-2-2-2-3-2-3-1-3-1-3-1-3v-3l-1-3 1-4v-3l1-3 1-3 1-3 2-3 2-3 2-2 2-2 3-2 3-2 3-1 3-1v-121l58-58h271v19H528l-46 47v113l3 1 3 1 3 2 2 2 3 2 2 2 2 3 1 3 2 3 1 3 1 3v13l-1 3-1 3-2 3-1 3-2 3-2 2-3 2-2 2-3 2-3 1-3 1v142l89 89h110l1-3 1-3 2-3 2-2 2-3 2-2 3-2 3-1 3-2 3-1 3-1h13l3 1 3 1 3 2 3 1 2 2 3 2 2 3 2 2 2 3 1 3 1 3h151l44-44v-270l177-177v-33zm-116 0-152 152v283H573v-297h281l140-139v1zm-25-122h-88l-148 149H526v-19h224l149-148h95zm420-19h40l177 177h271l55 55v159l3 1 3 1 3 2 2 2 3 2 2 2 2 3 1 2 2 3 1 3 1 4v13l-1 3-1 3-2 3-1 3-2 2-2 3-3 2-2 2-3 1-3 2-3 1v118l-100 100h-150l-1 3-2 3-1 3-2 2-2 3-3 2-2 2-3 1-3 2-3 1-3 1h-14l-3-1-3-1-3-2-2-1-3-2-2-2-2-3-2-2-2-3-1-3-1-3h-121l-58-58v-271h19v263l46 47h113l1-1 1-3 1-3 2-2 2-3 2-2 2-2 3-2 2-2 3-1 3-1 3-1 4-1h6l4 1 3 1 3 1 3 1 3 2 2 2 3 2 2 2 2 3 1 2 2 3 1 3v1h142l89-89v-110h-1l-3-1-3-2-2-1-3-2-2-2-2-3-2-2-2-3-1-3-1-3-1-3-1-3v-7l1-3 1-4 1-3 1-3 2-2 2-3 2-2 2-2 3-2 2-2 3-1 3-1h1v-151l-44-44h-271l-177-177h-32zm0 116 151 151h284v295h-297v-281l-139-140h1zm-122 25v87l148 149v231h-18v-224l-149-148v-95zm-19-420v-40l177-178V766l54-55h159l1-3 2-3 1-3 2-3 2-2 3-2 2-2 3-2 3-1 3-1 3-1h3l4-1 3 1h3l4 1 3 1 3 1 2 2 3 2 2 2 2 2 2 3 2 3 1 3 1 3h118l100 100v150h1l3 1 3 1 2 2 3 2 2 2 2 2 2 3 2 3 1 3 1 3 1 3 1 3v7l-1 3-1 3-1 3-1 3-2 3-2 3-2 2-2 2-3 2-2 2-3 1-3 1h-1v121l-57 58h-272v-19h264l47-47v-113h-1l-3-1-3-1-3-2-2-2-3-2-2-2-2-3-1-3-2-3-1-3-1-3v-13l1-3 1-3 2-3 1-3 2-3 2-2 3-2 2-2 3-2 3-1 3-1h1V819l-89-89h-111l-1 3-1 3-2 3-2 2-2 3-2 2-3 2-2 2-3 1-3 1-4 1h-13l-3-1-3-1-3-1-3-2-2-2-3-2-2-3-2-2-1-3-2-3-1-3h-151l-44 44v270l-177 177v33zm115 0 152-152V819h295v297h-282l-139 139v-1zm26 122h87l148-149h232v19h-224l-148 148h-95zm-684 171v-5l1-1 1-1v-1l1-1 1-1 1-1 1-1 1-1 2-1h2l2-1h3l1 1h3l1 1 1 1 1 1 1 1 1 1 1 1 1 1v1l1 1v9l-1 1v1l-1 2-1 1-1 1-1 1-1 1h-1l-1 1h-2l-1 1h-6l-1-1h-1l-2-1h-1l-1-1-1-1-1-1-1-1v-2l-1-1-1-1v-3z" style="fill:#ceaa52;fill-opacity:1"/>
  </g>
  <g id="Colors">
    <path id="polygon14" fill="#71625b" d="M601 2081v-241h238v241z" style="fill:#5477b7;fill-opacity:1"/>
    <path id="polygon15" fill="#bab3d6" d="M408 1586v-241h239v240z" style="fill:#8fb1d7;fill-opacity:1"/>
    <path id="polygon16" fill="#8e84b7" d="M586 861h241v239H586z" style="fill:#a98fb4;fill-opacity:1"/>
    <path id="polygon17" fill="#da251d" d="M1082 669h241v238h-241z" style="fill:#7ba26e;fill-opacity:1"/>
    <path id="polygon18" fill="#dd137b" d="M1807 847v240h-239V848z" style="fill:#d78392;fill-opacity:1"/>
    <path id="polygon19" fill="#974578" d="M1999 1343v240h-238v-240z"/>
    <path id="polygon20" fill="#e77817" d="M1821 2067h-241v-238h241z" style="fill:#e89039;fill-opacity:1"/>
    <path id="polygon21" fill="#ef9ba0" d="M1325 2259h-241v-238h241z" style="fill:#e4765b;fill-opacity:1"/>
  </g>
  <g id="Füllungen">
    <path id="path21" fill="#fff" d="M252 2348a61 61 0 1 1 121 0 61 61 0 0 1-121 0m1832 64a61 61 0 1 1 0-122 61 61 0 0 1 0 122m63-1832a61 61 0 1 1-121 0 61 61 0 0 1 121 0M315 517a61 61 0 1 1 0 121 61 61 0 0 1 0-121"/>
    <path id="path22" fill="#f8c300" d="M2084 2468a117 117 0 1 1 0-234 117 117 0 0 1 0 234m0-41a76 76 0 1 1 0-152 76 76 0 0 1 0 152m119-1847a117 117 0 1 1-234 0 117 117 0 0 1 234 0m-40 0a76 76 0 1 1-153 0 76 76 0 0 1 153 0M315 460a117 117 0 1 1 0 234 117 117 0 0 1 0-234m0 41a76 76 0 1 1 0 153 76 76 0 0 1 0-153M196 2348a117 117 0 1 1 234 0 117 117 0 0 1-234 0m40 0a76 76 0 1 1 153 0 76 76 0 0 1-153 0"/>
  </g>
  <g id="Text">
    <text id="staticText1" x="449" y="2927" fill="#1f1a17" font-family="Ubuntu Sans, Ubuntu, sans-serif" font-size="320" font-weight="500" letter-spacing="7">mixelpixx</text>
    <text id="staticText2" x="133" y="3252" fill="#1f1a17" font-family="Ubuntu Sans, Ubuntu, sans-serif" font-size="230" font-weight="500" letter-spacing="5">KiCAD-MCP-Server</text>
  </g>
</svg>
